{
  "source": "C:\\Users\\Peter\\Desktop\\stuff\\MIUN\\quantitative_research\\video_compression\\videos\\UVG\\YachtRide_1920x1080_120fps_420_8bit_YUV.y4m",
  "output": "C:\\Users\\Peter\\Desktop\\stuff\\MIUN\\quantitative_research\\video_compression\\compressed_videos\\UVG\\vp9\\2.5\\YachtRide_1920x1080_120fps_420_8bit_YUV_vp9.webm",
  "codec": "vp9",
  "ok": "[yuv4mpegpipe @ 0000026f85ef53c0] Stream #0: not enough frames to estimate rate; consider increasing probesize\nInput #0, yuv4mpegpipe, from 'C:\\Users\\Peter\\Desktop\\stuff\\MIUN\\quantitative_research\\video_compression\\videos\\UVG\\YachtRide_1920x1080_120fps_420_8bit_YUV.y4m':\n  Duration: 00:00:05.00, start: 0.000000, bitrate: 2985989 kb/s\n  Stream #0:0: Video: rawvideo (I420 / 0x30323449), yuv420p(progressive), 1920x1080, 120 fps, 120 tbr, 120 tbn\n[out#0/webm @ 0000026f85ef9040] Codec AVOption b:a (set bitrate (in bits/s)) has not been used for any stream. The most likely reason is either wrong type (e.g. a video option with no video streams) or that it is a private option of some decoder which was not actually used for any stream.\nStream mapping:\n  Stream #0:0 -> #0:0 (rawvideo (native) -> vp9 (libvpx-vp9))\nPress [q] to stop, [?] for help\n[libvpx-vp9 @ 0000026f85efc100] v1.15.2-100-g40561f514\nOutput #0, webm, to 'C:\\Users\\Peter\\Desktop\\stuff\\MIUN\\quantitative_research\\video_compression\\compressed_videos\\UVG\\vp9\\2.5\\YachtRide_1920x1080_120fps_420_8bit_YUV_vp9.webm':\n  Metadata:\n    encoder         : Lavf62.3.100\n  Stream #0:0: Video: vp9, yuv420p(tv, progressive), 1920x1080, q=2-31, 2500 kb/s, 120 fps, 1k tbn\n    Metadata:\n      encoder         : Lavc62.11.100 libvpx-vp9\n    Side data:\n      cpb: bitrate max/min/avg: 0/0/0 buffer size: 2500000 vbv_delay: N/A\nframe=    0 fps=0.0 q=0.0 size=       0KiB time=N/A bitrate=N/A speed=N/A elapsed=0:00:00.52    \nframe=    5 fps=4.6 q=59.0 size=       0KiB time=00:00:00.04 bitrate=  92.4kbits/s speed=0.0383x elapsed=0:00:01.08    \nframe=   10 fps=6.1 q=63.0 size=       0KiB time=00:00:00.07 bitrate=  51.3kbits/s speed=0.0461x elapsed=0:00:01.62    \nframe=   14 fps=6.3 q=63.0 size=       0KiB time=00:00:00.11 bitrate=  33.0kbits/s speed=0.0521x elapsed=0:00:02.23    \nframe=   18 fps=6.4 q=57.0 size=       0KiB time=00:00:00.14 bitrate=  27.2kbits/s speed=0.0502x elapsed=0:00:02.82    \nframe=   21 fps=6.1 q=61.0 size=       0KiB time=00:00:00.17 bitrate=  22.0kbits/s speed=0.0506x elapsed=0:00:03.45    \nframe=   25 fps=6.3 q=62.0 size=       0KiB time=00:00:00.20 bitrate=  18.5kbits/s speed=0.0522x elapsed=0:00:03.98    \nframe=   28 fps=6.2 q=57.0 size=       0KiB time=00:00:00.23 bitrate=  16.5kbits/s speed=0.0516x elapsed=0:00:04.52    \nframe=   31 fps=6.1 q=49.0 size=       0KiB time=00:00:00.25 bitrate=  14.9kbits/s speed=0.0508x elapsed=0:00:05.08    \nframe=   35 fps=6.2 q=59.0 size=       0KiB time=00:00:00.29 bitrate=  13.2kbits/s speed=0.052x elapsed=0:00:05.60    \nframe=   40 fps=6.5 q=63.0 size=       0KiB time=00:00:00.33 bitrate=  11.5kbits/s speed=0.0541x elapsed=0:00:06.16    \nframe=   44 fps=6.6 q=63.0 size=       0KiB time=00:00:00.36 bitrate=  10.5kbits/s speed=0.0547x elapsed=0:00:06.70    \nframe=   47 fps=6.5 q=63.0 size=       0KiB time=00:00:00.39 bitrate=   9.8kbits/s speed=0.054x elapsed=0:00:07.25    \nframe=   50 fps=6.4 q=58.0 size=       0KiB time=00:00:00.41 bitrate=   9.2kbits/s speed=0.0534x elapsed=0:00:07.79    \nframe=   52 fps=6.2 q=57.0 size=       0KiB time=00:00:00.43 bitrate=   8.9kbits/s speed=0.0519x elapsed=0:00:08.35    \nframe=   55 fps=6.2 q=58.0 size=       0KiB time=00:00:00.45 bitrate=   8.4kbits/s speed=0.0513x elapsed=0:00:08.93    \nframe=   58 fps=6.1 q=63.0 size=       0KiB time=00:00:00.48 bitrate=   8.0kbits/s speed=0.051x elapsed=0:00:09.46    \nframe=   60 fps=6.0 q=51.0 size=       0KiB time=00:00:00.50 bitrate=   7.7kbits/s speed=0.0499x elapsed=0:00:10.01    \nframe=   63 fps=6.0 q=62.0 size=       0KiB time=00:00:00.52 bitrate=   7.3kbits/s speed=0.0497x elapsed=0:00:10.56    \nframe=   66 fps=5.9 q=59.0 size=       0KiB time=00:00:00.55 bitrate=   7.0kbits/s speed=0.0495x elapsed=0:00:11.10    \nframe=   68 fps=5.8 q=63.0 size=       0KiB time=00:00:00.56 bitrate=   6.8kbits/s speed=0.0483x elapsed=0:00:11.73    \nframe=   71 fps=5.8 q=60.0 size=       0KiB time=00:00:00.59 bitrate=   6.5kbits/s speed=0.0481x elapsed=0:00:12.29    \nframe=   74 fps=5.8 q=51.0 size=       0KiB time=00:00:00.61 bitrate=   6.2kbits/s speed=0.0481x elapsed=0:00:12.82    \nframe=   77 fps=5.7 q=60.0 size=       0KiB time=00:00:00.64 bitrate=   6.0kbits/s speed=0.0479x elapsed=0:00:13.39    \nframe=   79 fps=5.7 q=60.0 size=       0KiB time=00:00:00.65 bitrate=   5.8kbits/s speed=0.0471x elapsed=0:00:13.97    \nframe=   82 fps=5.6 q=60.0 size=       0KiB time=00:00:00.68 bitrate=   5.6kbits/s speed=0.0471x elapsed=0:00:14.52    \nframe=   85 fps=5.6 q=60.0 size=       0KiB time=00:00:00.70 bitrate=   5.4kbits/s speed=0.0468x elapsed=0:00:15.12    \nframe=   88 fps=5.6 q=60.0 size=       0KiB time=00:00:00.73 bitrate=   5.2kbits/s speed=0.0466x elapsed=0:00:15.72    \nframe=   90 fps=5.5 q=60.0 size=       0KiB time=00:00:00.75 bitrate=   5.1kbits/s speed=0.0459x elapsed=0:00:16.34    \nframe=   93 fps=5.5 q=60.0 size=       0KiB time=00:00:00.77 bitrate=   5.0kbits/s speed=0.0458x elapsed=0:00:16.92    \nframe=   96 fps=5.5 q=60.0 size=       0KiB time=00:00:00.80 bitrate=   4.8kbits/s speed=0.0457x elapsed=0:00:17.49    \nframe=  100 fps=5.5 q=60.0 size=       0KiB time=00:00:00.83 bitrate=   4.6kbits/s speed=0.0462x elapsed=0:00:18.05    \nframe=  102 fps=5.5 q=60.0 size=       0KiB time=00:00:00.85 bitrate=   4.5kbits/s speed=0.0457x elapsed=0:00:18.60    \nframe=  104 fps=5.4 q=50.0 size=       0KiB time=00:00:00.86 bitrate=   4.4kbits/s speed=0.0452x elapsed=0:00:19.15    \nframe=  107 fps=5.4 q=60.0 size=       0KiB time=00:00:00.89 bitrate=   4.3kbits/s speed=0.0453x elapsed=0:00:19.66    \nframe=  111 fps=5.5 q=61.0 size=       0KiB time=00:00:00.92 bitrate=   4.2kbits/s speed=0.0458x elapsed=0:00:20.18    \nframe=  115 fps=5.5 q=61.0 size=       0KiB time=00:00:00.95 bitrate=   4.0kbits/s speed=0.0462x elapsed=0:00:20.73    \nframe=  119 fps=5.6 q=60.0 size=       0KiB time=00:00:00.99 bitrate=   3.9kbits/s speed=0.0467x elapsed=0:00:21.25    \nframe=  123 fps=5.6 q=60.0 size=       0KiB time=00:00:01.02 bitrate=   3.8kbits/s speed=0.0471x elapsed=0:00:21.77    \nframe=  128 fps=5.7 q=61.0 size=       0KiB time=00:00:01.06 bitrate=   3.6kbits/s speed=0.0478x elapsed=0:00:22.30    \nframe=  132 fps=5.8 q=59.0 size=     256KiB time=00:00:01.10 bitrate=1906.5kbits/s speed=0.0481x elapsed=0:00:22.86    \nframe=  137 fps=5.9 q=60.0 size=     256KiB time=00:00:01.14 bitrate=1836.9kbits/s speed=0.0488x elapsed=0:00:23.37    \nframe=  142 fps=5.9 q=61.0 size=     256KiB time=00:00:01.18 bitrate=1772.2kbits/s speed=0.0495x elapsed=0:00:23.89    \nframe=  146 fps=6.0 q=59.0 size=     256KiB time=00:00:01.21 bitrate=1723.7kbits/s speed=0.0498x elapsed=0:00:24.43    \nframe=  151 fps=6.0 q=61.0 size=     256KiB time=00:00:01.25 bitrate=1666.6kbits/s speed=0.0504x elapsed=0:00:24.97    \nframe=  155 fps=6.1 q=61.0 size=     256KiB time=00:00:01.29 bitrate=1623.6kbits/s speed=0.0506x elapsed=0:00:25.51    \nframe=  158 fps=6.1 q=61.0 size=     256KiB time=00:00:01.31 bitrate=1592.8kbits/s speed=0.0506x elapsed=0:00:26.03    \nframe=  163 fps=6.1 q=60.0 size=     256KiB time=00:00:01.35 bitrate=1543.9kbits/s speed=0.0511x elapsed=0:00:26.55    \nframe=  167 fps=6.2 q=61.0 size=     256KiB time=00:00:01.39 bitrate=1506.9kbits/s speed=0.0514x elapsed=0:00:27.07    \nframe=  171 fps=6.2 q=61.0 size=     256KiB time=00:00:01.42 bitrate=1471.7kbits/s speed=0.0516x elapsed=0:00:27.60    \nframe=  175 fps=6.2 q=60.0 size=     256KiB time=00:00:01.45 bitrate=1438.0kbits/s speed=0.0518x elapsed=0:00:28.14    \nframe=  179 fps=6.2 q=61.0 size=     256KiB time=00:00:01.49 bitrate=1405.9kbits/s speed=0.0521x elapsed=0:00:28.64    \nframe=  184 fps=6.3 q=59.0 size=     256KiB time=00:00:01.53 bitrate=1367.7kbits/s speed=0.0526x elapsed=0:00:29.16    \nframe=  188 fps=6.3 q=59.0 size=     256KiB time=00:00:01.56 bitrate=1338.6kbits/s speed=0.0528x elapsed=0:00:29.67    \nframe=  192 fps=6.4 q=60.0 size=     256KiB time=00:00:01.60 bitrate=1310.7kbits/s speed=0.053x elapsed=0:00:30.19    \nframe=  195 fps=6.3 q=60.0 size=     256KiB time=00:00:01.62 bitrate=1290.6kbits/s speed=0.0529x elapsed=0:00:30.71    \nframe=  200 fps=6.4 q=61.0 size=     256KiB time=00:00:01.66 bitrate=1258.3kbits/s speed=0.0534x elapsed=0:00:31.22    \nframe=  203 fps=6.4 q=60.0 size=     256KiB time=00:00:01.69 bitrate=1239.7kbits/s speed=0.0533x elapsed=0:00:31.74    \nframe=  208 fps=6.4 q=60.0 size=     256KiB time=00:00:01.73 bitrate=1209.9kbits/s speed=0.0537x elapsed=0:00:32.26    \nframe=  212 fps=6.5 q=63.0 size=     256KiB time=00:00:01.76 bitrate=1187.1kbits/s speed=0.0539x elapsed=0:00:32.79    \nframe=  216 fps=6.5 q=63.0 size=     256KiB time=00:00:01.80 bitrate=1165.1kbits/s speed=0.054x elapsed=0:00:33.31    \nframe=  221 fps=6.5 q=63.0 size=     256KiB time=00:00:01.84 bitrate=1138.7kbits/s speed=0.0544x elapsed=0:00:33.82    \nframe=  225 fps=6.6 q=52.0 size=     256KiB time=00:00:01.87 bitrate=1118.5kbits/s speed=0.0546x elapsed=0:00:34.33    \nframe=  230 fps=6.6 q=63.0 size=     256KiB time=00:00:01.91 bitrate=1094.2kbits/s speed=0.0549x elapsed=0:00:34.88    \nframe=  234 fps=6.6 q=60.0 size=     256KiB time=00:00:01.95 bitrate=1075.5kbits/s speed=0.055x elapsed=0:00:35.42    \nframe=  238 fps=6.6 q=59.0 size=     256KiB time=00:00:01.98 bitrate=1057.4kbits/s speed=0.0552x elapsed=0:00:35.94    \nframe=  243 fps=6.7 q=60.0 size=     256KiB time=00:00:02.02 bitrate=1035.6kbits/s speed=0.0555x elapsed=0:00:36.46    \nframe=  247 fps=6.7 q=63.0 size=     256KiB time=00:00:02.05 bitrate=1018.9kbits/s speed=0.0556x elapsed=0:00:37.00    \nframe=  251 fps=6.7 q=63.0 size=     256KiB time=00:00:02.09 bitrate=1002.6kbits/s speed=0.0557x elapsed=0:00:37.55    \nframe=  256 fps=6.7 q=59.0 size=     256KiB time=00:00:02.13 bitrate= 983.0kbits/s speed=0.056x elapsed=0:00:38.08    \nframe=  260 fps=6.7 q=62.0 size=     512KiB time=00:00:02.16 bitrate=1935.8kbits/s speed=0.0561x elapsed=0:00:38.62    \nframe=  265 fps=6.8 q=63.0 size=     512KiB time=00:00:02.20 bitrate=1899.3kbits/s speed=0.0564x elapsed=0:00:39.14    \nframe=  270 fps=6.8 q=60.0 size=     512KiB time=00:00:02.25 bitrate=1864.1kbits/s speed=0.0567x elapsed=0:00:39.69    \nframe=  274 fps=6.8 q=63.0 size=     512KiB time=00:00:02.28 bitrate=1836.9kbits/s speed=0.0568x elapsed=0:00:40.22    \nframe=  278 fps=6.8 q=51.0 size=     512KiB time=00:00:02.30 bitrate=1817.0kbits/s speed=0.0566x elapsed=0:00:40.74    \nframe=  283 fps=6.9 q=63.0 size=     512KiB time=00:00:02.35 bitrate=1778.5kbits/s speed=0.0571x elapsed=0:00:41.29    \nframe=  287 fps=6.9 q=59.0 size=     512KiB time=00:00:02.39 bitrate=1753.7kbits/s speed=0.0572x elapsed=0:00:41.82    \nframe=  291 fps=6.9 q=59.0 size=     512KiB time=00:00:02.42 bitrate=1729.6kbits/s speed=0.0572x elapsed=0:00:42.36    \nframe=  296 fps=6.9 q=60.0 size=     512KiB time=00:00:02.46 bitrate=1700.4kbits/s speed=0.0575x elapsed=0:00:42.90    \nframe=  300 fps=6.9 q=63.0 size=     512KiB time=00:00:02.50 bitrate=1677.7kbits/s speed=0.0576x elapsed=0:00:43.42    \nframe=  304 fps=6.9 q=63.0 size=     512KiB time=00:00:02.53 bitrate=1655.6kbits/s speed=0.0577x elapsed=0:00:43.92    \nframe=  309 fps=6.9 q=63.0 size=     512KiB time=00:00:02.57 bitrate=1628.9kbits/s speed=0.0579x elapsed=0:00:44.46    \nframe=  312 fps=6.9 q=59.0 size=     512KiB time=00:00:02.60 bitrate=1613.2kbits/s speed=0.0578x elapsed=0:00:45.00    \nframe=  317 fps=7.0 q=61.0 size=     512KiB time=00:00:02.64 bitrate=1587.7kbits/s speed=0.0581x elapsed=0:00:45.50    \nframe=  321 fps=7.0 q=63.0 size=     512KiB time=00:00:02.67 bitrate=1568.0kbits/s speed=0.0581x elapsed=0:00:46.02    \nframe=  325 fps=7.0 q=63.0 size=     512KiB time=00:00:02.70 bitrate=1548.7kbits/s speed=0.0582x elapsed=0:00:46.53    \nframe=  330 fps=7.0 q=63.0 size=     512KiB time=00:00:02.75 bitrate=1525.2kbits/s speed=0.0584x elapsed=0:00:47.05    \nframe=  333 fps=7.0 q=60.0 size=     512KiB time=00:00:02.77 bitrate=1511.5kbits/s speed=0.0583x elapsed=0:00:47.58    \nframe=  338 fps=7.0 q=60.0 size=     512KiB time=00:00:02.81 bitrate=1489.1kbits/s speed=0.0586x elapsed=0:00:48.10    \nframe=  342 fps=7.0 q=63.0 size=     512KiB time=00:00:02.85 bitrate=1471.7kbits/s speed=0.0586x elapsed=0:00:48.65    \nframe=  347 fps=7.1 q=61.0 size=     512KiB time=00:00:02.89 bitrate=1450.5kbits/s speed=0.0588x elapsed=0:00:49.17    \nframe=  351 fps=7.1 q=62.0 size=     512KiB time=00:00:02.92 bitrate=1434.0kbits/s speed=0.0588x elapsed=0:00:49.70    \nframe=  355 fps=7.1 q=50.0 size=     512KiB time=00:00:02.95 bitrate=1417.8kbits/s speed=0.0589x elapsed=0:00:50.24    \nframe=  359 fps=7.1 q=60.0 size=     512KiB time=00:00:02.99 bitrate=1402.0kbits/s speed=0.0589x elapsed=0:00:50.77    \nframe=  363 fps=7.1 q=61.0 size=     512KiB time=00:00:03.02 bitrate=1386.5kbits/s speed=0.059x elapsed=0:00:51.29    \nframe=  368 fps=7.1 q=61.0 size=     512KiB time=00:00:03.06 bitrate=1367.7kbits/s speed=0.0591x elapsed=0:00:51.84    \nframe=  372 fps=7.1 q=60.0 size=     512KiB time=00:00:03.10 bitrate=1353.0kbits/s speed=0.0592x elapsed=0:00:52.40    \nframe=  376 fps=7.1 q=60.0 size=     512KiB time=00:00:03.13 bitrate=1338.6kbits/s speed=0.0592x elapsed=0:00:52.91    \nframe=  381 fps=7.1 q=60.0 size=     512KiB time=00:00:03.17 bitrate=1321.0kbits/s speed=0.0594x elapsed=0:00:53.48    \nframe=  385 fps=7.1 q=52.0 size=     512KiB time=00:00:03.20 bitrate=1307.3kbits/s speed=0.0594x elapsed=0:00:54.02    \nframe=  390 fps=7.2 q=62.0 size=    1024KiB time=00:00:03.25 bitrate=2581.1kbits/s speed=0.0596x elapsed=0:00:54.53    \nframe=  395 fps=7.2 q=62.0 size=    1024KiB time=00:00:03.29 bitrate=2548.4kbits/s speed=0.0598x elapsed=0:00:55.07    \nframe=  398 fps=7.2 q=61.0 size=    1024KiB time=00:00:03.31 bitrate=2529.2kbits/s speed=0.0596x elapsed=0:00:55.61    \nframe=  403 fps=7.2 q=59.0 size=    1024KiB time=00:00:03.35 bitrate=2497.8kbits/s speed=0.0598x elapsed=0:00:56.13    \nframe=  407 fps=7.2 q=63.0 size=    1024KiB time=00:00:03.39 bitrate=2473.3kbits/s speed=0.0598x elapsed=0:00:56.68    \nframe=  411 fps=7.2 q=62.0 size=    1024KiB time=00:00:03.42 bitrate=2449.2kbits/s speed=0.0599x elapsed=0:00:57.21    \nframe=  415 fps=7.2 q=58.0 size=    1024KiB time=00:00:03.45 bitrate=2425.6kbits/s speed=0.0599x elapsed=0:00:57.72    \nframe=  419 fps=7.2 q=59.0 size=    1024KiB time=00:00:03.49 bitrate=2402.5kbits/s speed=0.0599x elapsed=0:00:58.24    \nframe=  423 fps=7.2 q=63.0 size=    1024KiB time=00:00:03.52 bitrate=2379.7kbits/s speed=0.06x elapsed=0:00:58.77    \nframe=  426 fps=7.2 q=59.0 size=    1024KiB time=00:00:03.55 bitrate=2363.0kbits/s speed=0.0599x elapsed=0:00:59.29    \nframe=  431 fps=7.2 q=59.0 size=    1024KiB time=00:00:03.59 bitrate=2335.6kbits/s speed=0.0601x elapsed=0:00:59.80    \nframe=  435 fps=7.2 q=58.0 size=    1024KiB time=00:00:03.62 bitrate=2314.1kbits/s speed=0.0601x elapsed=0:01:00.34    \nframe=  439 fps=7.2 q=57.0 size=    1024KiB time=00:00:03.65 bitrate=2293.0kbits/s speed=0.0601x elapsed=0:01:00.85    \nframe=  442 fps=7.2 q=50.0 size=    1024KiB time=00:00:03.68 bitrate=2277.5kbits/s speed=0.06x elapsed=0:01:01.36    \nframe=  447 fps=7.2 q=63.0 size=    1024KiB time=00:00:03.72 bitrate=2252.0kbits/s speed=0.0602x elapsed=0:01:01.88    \nframe=  451 fps=7.2 q=63.0 size=    1024KiB time=00:00:03.75 bitrate=2232.0kbits/s speed=0.0602x elapsed=0:01:02.41    \nframe=  455 fps=7.2 q=63.0 size=    1024KiB time=00:00:03.79 bitrate=2212.4kbits/s speed=0.0602x elapsed=0:01:02.93    \nframe=  459 fps=7.2 q=58.0 size=    1024KiB time=00:00:03.82 bitrate=2193.1kbits/s speed=0.0603x elapsed=0:01:03.44    \nframe=  464 fps=7.3 q=63.0 size=    1024KiB time=00:00:03.86 bitrate=2169.5kbits/s speed=0.0604x elapsed=0:01:03.98    \nframe=  468 fps=7.3 q=63.0 size=    1024KiB time=00:00:03.90 bitrate=2150.9kbits/s speed=0.0605x elapsed=0:01:04.51    \nframe=  472 fps=7.3 q=48.0 size=    1024KiB time=00:00:03.93 bitrate=2132.7kbits/s speed=0.0605x elapsed=0:01:05.04    \nframe=  477 fps=7.3 q=63.0 size=    1024KiB time=00:00:03.97 bitrate=2110.3kbits/s speed=0.0606x elapsed=0:01:05.56    \nframe=  482 fps=7.3 q=58.0 size=    1024KiB time=00:00:04.01 bitrate=2088.4kbits/s speed=0.0608x elapsed=0:01:06.10    \nframe=  486 fps=7.3 q=58.0 size=    1024KiB time=00:00:04.05 bitrate=2071.3kbits/s speed=0.0608x elapsed=0:01:06.64    \nframe=  491 fps=7.3 q=60.0 size=    1024KiB time=00:00:04.09 bitrate=2050.2kbits/s speed=0.0609x elapsed=0:01:07.19    \nframe=  496 fps=7.3 q=63.0 size=    1024KiB time=00:00:04.13 bitrate=2029.5kbits/s speed=0.061x elapsed=0:01:07.71    \nframe=  501 fps=7.3 q=63.0 size=    1024KiB time=00:00:04.17 bitrate=2009.2kbits/s speed=0.0612x elapsed=0:01:08.25    \nframe=  505 fps=7.3 q=63.0 size=    1024KiB time=00:00:04.20 bitrate=1993.3kbits/s speed=0.0612x elapsed=0:01:08.78    \nframe=  511 fps=7.4 q=63.0 size=    1024KiB time=00:00:04.25 bitrate=1973.8kbits/s speed=0.0613x elapsed=0:01:09.30    \nframe=  514 fps=7.4 q=63.0 size=    1280KiB time=00:00:04.28 bitrate=2448.0kbits/s speed=0.0614x elapsed=0:01:09.81    \nframe=  520 fps=7.4 q=63.0 size=    1280KiB time=00:00:04.33 bitrate=2419.8kbits/s speed=0.0616x elapsed=0:01:10.35    \nframe=  525 fps=7.4 q=59.0 size=    1280KiB time=00:00:04.37 bitrate=2396.7kbits/s speed=0.0617x elapsed=0:01:10.88    \nframe=  529 fps=7.4 q=63.0 size=    1280KiB time=00:00:04.40 bitrate=2378.6kbits/s speed=0.0617x elapsed=0:01:11.41    \nframe=  533 fps=7.4 q=63.0 size=    1280KiB time=00:00:04.44 bitrate=2360.8kbits/s speed=0.0617x elapsed=0:01:11.93    \nframe=  538 fps=7.4 q=58.0 size=    1280KiB time=00:00:04.48 bitrate=2338.8kbits/s speed=0.0619x elapsed=0:01:12.44    \nframe=  542 fps=7.4 q=57.0 size=    1280KiB time=00:00:04.51 bitrate=2321.6kbits/s speed=0.0619x elapsed=0:01:12.96    \nframe=  546 fps=7.4 q=63.0 size=    1280KiB time=00:00:04.55 bitrate=2304.6kbits/s speed=0.0619x elapsed=0:01:13.52    \nframe=  550 fps=7.4 q=63.0 size=    1280KiB time=00:00:04.58 bitrate=2287.8kbits/s speed=0.0619x elapsed=0:01:14.05    \nframe=  555 fps=7.4 q=55.0 size=    1280KiB time=00:00:04.62 bitrate=2267.2kbits/s speed=0.062x elapsed=0:01:14.57    \nframe=  558 fps=7.4 q=47.0 size=    1280KiB time=00:00:04.65 bitrate=2255.0kbits/s speed=0.0619x elapsed=0:01:15.09    \nframe=  563 fps=7.4 q=63.0 size=    1280KiB time=00:00:04.69 bitrate=2235.0kbits/s speed=0.0621x elapsed=0:01:15.60    \nframe=  567 fps=7.4 q=63.0 size=    1280KiB time=00:00:04.72 bitrate=2219.2kbits/s speed=0.062x elapsed=0:01:16.15    \nframe=  571 fps=7.4 q=63.0 size=    1280KiB time=00:00:04.75 bitrate=2203.7kbits/s speed=0.0621x elapsed=0:01:16.66    \nframe=  574 fps=7.4 q=63.0 size=    1280KiB time=00:00:04.78 bitrate=2192.1kbits/s speed=0.062x elapsed=0:01:17.20    \nframe=  576 fps=7.4 q=63.0 size=    1280KiB time=00:00:04.80 bitrate=2184.5kbits/s speed=0.0618x elapsed=0:01:17.73    \nframe=  576 fps=7.4 q=63.0 size=    1280KiB time=00:00:04.80 bitrate=2184.5kbits/s speed=0.0613x elapsed=0:01:18.25    \nframe=  576 fps=7.3 q=63.0 size=    1280KiB time=00:00:04.80 bitrate=2184.5kbits/s speed=0.0609x elapsed=0:01:18.78    \nframe=  576 fps=7.3 q=63.0 size=    1280KiB time=00:00:04.80 bitrate=2184.5kbits/s speed=0.0605x elapsed=0:01:19.30    \nframe=  576 fps=7.2 q=63.0 size=    1280KiB time=00:00:04.80 bitrate=2184.5kbits/s speed=0.0601x elapsed=0:01:19.81    \nframe=  576 fps=7.2 q=63.0 size=    1280KiB time=00:00:04.80 bitrate=2184.5kbits/s speed=0.0597x elapsed=0:01:20.34    \n[out#0/webm @ 0000026f85ef9040] video:1856KiB audio:0KiB subtitle:0KiB other streams:0KiB global headers:0KiB muxing overhead: 0.254730%\nframe=  600 fps=7.5 q=54.0 Lsize=    1861KiB time=00:00:05.00 bitrate=3049.1kbits/s speed=0.0622x elapsed=0:01:20.36    \n",
  "seconds": 80.54040503501892,
  "probe_out": {}
}